<svg id="visual" viewBox="0 0 1900 950" width="1900" height="950" xmlns="http://www.w3.org/2000/svg" xmlns:xlink="http://www.w3.org/1999/xlink" version="1.1"><rect x="0" y="0" width="1900" height="950" fill="#000000"></rect><path d="M0 648L45.2 637.2C90.3 626.3 180.7 604.7 271.2 590.8C361.7 577 452.3 571 542.8 585.7C633.3 600.3 723.7 635.7 814.2 637.5C904.7 639.3 995.3 607.7 1085.8 601C1176.3 594.3 1266.7 612.7 1357.2 613.3C1447.7 614 1538.3 597 1628.8 587.3C1719.3 577.7 1809.7 575.3 1854.8 574.2L1900 573L1900 951L1854.8 951C1809.7 951 1719.3 951 1628.8 951C1538.3 951 1447.7 951 1357.2 951C1266.7 951 1176.3 951 1085.8 951C995.3 951 904.7 951 814.2 951C723.7 951 633.3 951 542.8 951C452.3 951 361.7 951 271.2 951C180.7 951 90.3 951 45.2 951L0 951Z" fill="#d80056"></path><path d="M0 728L45.2 718.5C90.3 709 180.7 690 271.2 686.2C361.7 682.3 452.3 693.7 542.8 685C633.3 676.3 723.7 647.7 814.2 650.5C904.7 653.3 995.3 687.7 1085.8 704.3C1176.3 721 1266.7 720 1357.2 713.3C1447.7 706.7 1538.3 694.3 1628.8 690.2C1719.3 686 1809.7 690 1854.8 692L1900 694L1900 951L1854.8 951C1809.7 951 1719.3 951 1628.8 951C1538.3 951 1447.7 951 1357.2 951C1266.7 951 1176.3 951 1085.8 951C995.3 951 904.7 951 814.2 951C723.7 951 633.3 951 542.8 951C452.3 951 361.7 951 271.2 951C180.7 951 90.3 951 45.2 951L0 951Z" fill="#a61463"></path><path d="M0 754L45.2 742.8C90.3 731.7 180.7 709.3 271.2 695.5C361.7 681.7 452.3 676.3 542.8 682.5C633.3 688.7 723.7 706.3 814.2 722.5C904.7 738.7 995.3 753.3 1085.8 750.5C1176.3 747.7 1266.7 727.3 1357.2 727.2C1447.7 727 1538.3 747 1628.8 752.7C1719.3 758.3 1809.7 749.7 1854.8 745.3L1900 741L1900 951L1854.8 951C1809.7 951 1719.3 951 1628.8 951C1538.3 951 1447.7 951 1357.2 951C1266.7 951 1176.3 951 1085.8 951C995.3 951 904.7 951 814.2 951C723.7 951 633.3 951 542.8 951C452.3 951 361.7 951 271.2 951C180.7 951 90.3 951 45.2 951L0 951Z" fill="#702260"></path><path d="M0 731L45.2 744.8C90.3 758.7 180.7 786.3 271.2 795.3C361.7 804.3 452.3 794.7 542.8 788.7C633.3 782.7 723.7 780.3 814.2 781.3C904.7 782.3 995.3 786.7 1085.8 791.8C1176.3 797 1266.7 803 1357.2 803.3C1447.7 803.7 1538.3 798.3 1628.8 792.3C1719.3 786.3 1809.7 779.7 1854.8 776.3L1900 773L1900 951L1854.8 951C1809.7 951 1719.3 951 1628.8 951C1538.3 951 1447.7 951 1357.2 951C1266.7 951 1176.3 951 1085.8 951C995.3 951 904.7 951 814.2 951C723.7 951 633.3 951 542.8 951C452.3 951 361.7 951 271.2 951C180.7 951 90.3 951 45.2 951L0 951Z" fill="#3e224d"></path><path d="M0 807L45.2 814.7C90.3 822.3 180.7 837.7 271.2 840.2C361.7 842.7 452.3 832.3 542.8 822.2C633.3 812 723.7 802 814.2 800.8C904.7 799.7 995.3 807.3 1085.8 818.8C1176.3 830.3 1266.7 845.7 1357.2 844C1447.7 842.3 1538.3 823.7 1628.8 815.2C1719.3 806.7 1809.7 808.3 1854.8 809.2L1900 810L1900 951L1854.8 951C1809.7 951 1719.3 951 1628.8 951C1538.3 951 1447.7 951 1357.2 951C1266.7 951 1176.3 951 1085.8 951C995.3 951 904.7 951 814.2 951C723.7 951 633.3 951 542.8 951C452.3 951 361.7 951 271.2 951C180.7 951 90.3 951 45.2 951L0 951Z" fill="#1b182e"></path><path d="M0 887L45.2 883.8C90.3 880.7 180.7 874.3 271.2 870.2C361.7 866 452.3 864 542.8 867.5C633.3 871 723.7 880 814.2 883.5C904.7 887 995.3 885 1085.8 886.5C1176.3 888 1266.7 893 1357.2 898.3C1447.7 903.7 1538.3 909.3 1628.8 902.7C1719.3 896 1809.7 877 1854.8 867.5L1900 858L1900 951L1854.8 951C1809.7 951 1719.3 951 1628.8 951C1538.3 951 1447.7 951 1357.2 951C1266.7 951 1176.3 951 1085.8 951C995.3 951 904.7 951 814.2 951C723.7 951 633.3 951 542.8 951C452.3 951 361.7 951 271.2 951C180.7 951 90.3 951 45.2 951L0 951Z" fill="#010206"></path></svg>