<svg id="visual" viewBox="0 0 2000 1200" width="2000" height="1200" xmlns="http://www.w3.org/2000/svg" xmlns:xlink="http://www.w3.org/1999/xlink" version="1.1"><rect x="0" y="0" width="2000" height="1200" fill="#0e100f"></rect><path d="M0 1049L47.7 1052.7C95.3 1056.3 190.7 1063.7 285.8 1053.3C381 1043 476 1015 571.2 991.7C666.3 968.3 761.7 949.7 857 964.3C952.3 979 1047.7 1027 1143 1056.5C1238.3 1086 1333.7 1097 1428.8 1097.5C1524 1098 1619 1088 1714.2 1063.8C1809.3 1039.7 1904.7 1001.3 1952.3 982.2L2000 963L2000 1201L1952.3 1201C1904.7 1201 1809.3 1201 1714.2 1201C1619 1201 1524 1201 1428.8 1201C1333.7 1201 1238.3 1201 1143 1201C1047.7 1201 952.3 1201 857 1201C761.7 1201 666.3 1201 571.2 1201C476 1201 381 1201 285.8 1201C190.7 1201 95.3 1201 47.7 1201L0 1201Z" fill="#FEF2F4" stroke-linecap="round" stroke-linejoin="miter"></path></svg>