<svg id="visual" viewBox="0 0 2000 1200" width="2000" height="1200" xmlns="http://www.w3.org/2000/svg" xmlns:xlink="http://www.w3.org/1999/xlink" version="1.1"><rect x="0" y="0" width="2000" height="1200" fill="#0e100f"></rect><path d="M0 149L47.7 145.3C95.3 141.7 190.7 134.3 285.8 144.7C381 155 476 183 571.2 206.3C666.3 229.7 761.7 248.3 857 233.7C952.3 219 1047.7 171 1143 141.5C1238.3 112 1333.7 101 1428.8 100.5C1524 100 1619 110 1714.2 134.2C1809.3 158.3 1904.7 196.7 1952.3 215.8L2000 235L2000 0L1952.3 0C1904.7 0 1809.3 0 1714.2 0C1619 0 1524 0 1428.8 0C1333.7 0 1238.3 0 1143 0C1047.7 0 952.3 0 857 0C761.7 0 666.3 0 571.2 0C476 0 381 0 285.8 0C190.7 0 95.3 0 47.7 0L0 0Z" fill="#FEF2F4" stroke-linecap="round" stroke-linejoin="miter"></path></svg>