<svg id="visual" viewBox="0 0 2000 1000" width="2000" height="1000" xmlns="http://www.w3.org/2000/svg" xmlns:xlink="http://www.w3.org/1999/xlink" version="1.1"><path d="M0 952L55.5 934.3C111 916.7 222 881.3 333.2 870.2C444.3 859 555.7 872 666.8 885C778 898 889 911 1000 910.8C1111 910.7 1222 897.3 1333.2 901.8C1444.3 906.3 1555.7 928.7 1666.8 932.7C1778 936.7 1889 922.3 1944.5 915.2L2000 908L2000 1001L1944.5 1001C1889 1001 1778 1001 1666.8 1001C1555.7 1001 1444.3 1001 1333.2 1001C1222 1001 1111 1001 1000 1001C889 1001 778 1001 666.8 1001C555.7 1001 444.3 1001 333.2 1001C222 1001 111 1001 55.5 1001L0 1001Z" fill="#85EF47" stroke-linecap="round" stroke-linejoin="miter"></path></svg>