<svg id="visual" viewBox="0 0 600 900" width="600" height="900" xmlns="http://www.w3.org/2000/svg" xmlns:xlink="http://www.w3.org/1999/xlink" version="1.1"><rect x="0" y="0" width="600" height="900" fill="#161616"></rect><defs><linearGradient id="grad1_0" x1="0%" y1="100%" x2="100%" y2="0%"><stop offset="30%" stop-color="#6528f7" stop-opacity="1"></stop><stop offset="70%" stop-color="#6528f7" stop-opacity="1"></stop></linearGradient></defs><defs><linearGradient id="grad1_1" x1="0%" y1="100%" x2="100%" y2="0%"><stop offset="30%" stop-color="#6528f7" stop-opacity="1"></stop><stop offset="70%" stop-color="#161616" stop-opacity="1"></stop></linearGradient></defs><defs><linearGradient id="grad2_0" x1="0%" y1="100%" x2="100%" y2="0%"><stop offset="30%" stop-color="#6528f7" stop-opacity="1"></stop><stop offset="70%" stop-color="#6528f7" stop-opacity="1"></stop></linearGradient></defs><defs><linearGradient id="grad2_1" x1="0%" y1="100%" x2="100%" y2="0%"><stop offset="30%" stop-color="#161616" stop-opacity="1"></stop><stop offset="70%" stop-color="#6528f7" stop-opacity="1"></stop></linearGradient></defs><g transform="translate(600, 900)"><path d="M-324.5 0C-316.4 -40.1 -308.2 -80.2 -294.7 -122.1C-281.2 -164 -262.3 -207.7 -229.5 -229.5C-196.6 -251.2 -149.6 -251.1 -109.1 -263.3C-68.5 -275.5 -34.2 -300 0 -324.5L0 0Z" fill="#42247d"></path><path d="M-162.2 0C-158.2 -20 -154.1 -40.1 -147.4 -61C-140.6 -82 -131.2 -103.8 -114.7 -114.7C-98.3 -125.6 -74.8 -125.6 -54.5 -131.7C-34.2 -137.7 -17.1 -150 0 -162.2L0 0Z" fill="#6528f7"></path></g><g transform="translate(0, 0)"><path d="M324.5 0C322.2 44.2 319.8 88.3 299.8 124.2C279.8 160 242 187.5 207.2 207.2C172.3 226.8 140.4 238.6 106.4 256.8C72.3 275.1 36.2 299.8 0 324.5L0 0Z" fill="#42247d"></path><path d="M162.2 0C161.1 22.1 159.9 44.2 149.9 62.1C139.9 80 121 93.8 103.6 103.6C86.2 113.4 70.2 119.3 53.2 128.4C36.2 137.5 18.1 149.9 0 162.2L0 0Z" fill="#6528f7"></path></g></svg>