<svg id="visual" viewBox="0 0 600 900" width="600" height="900" xmlns="http://www.w3.org/2000/svg" xmlns:xlink="http://www.w3.org/1999/xlink" version="1.1"><rect x="0" y="0" width="600" height="900" fill="#161616"></rect><defs><linearGradient id="grad1_0" x1="0%" y1="100%" x2="100%" y2="0%"><stop offset="30%" stop-color="#6528f7" stop-opacity="1"></stop><stop offset="70%" stop-color="#6528f7" stop-opacity="1"></stop></linearGradient></defs><defs><linearGradient id="grad1_1" x1="0%" y1="100%" x2="100%" y2="0%"><stop offset="30%" stop-color="#6528f7" stop-opacity="1"></stop><stop offset="70%" stop-color="#161616" stop-opacity="1"></stop></linearGradient></defs><defs><linearGradient id="grad2_0" x1="0%" y1="100%" x2="100%" y2="0%"><stop offset="30%" stop-color="#6528f7" stop-opacity="1"></stop><stop offset="70%" stop-color="#6528f7" stop-opacity="1"></stop></linearGradient></defs><defs><linearGradient id="grad2_1" x1="0%" y1="100%" x2="100%" y2="0%"><stop offset="30%" stop-color="#161616" stop-opacity="1"></stop><stop offset="70%" stop-color="#6528f7" stop-opacity="1"></stop></linearGradient></defs><g transform="translate(600, 900)"><path d="M-432.7 0C-428.8 -58.1 -424.9 -116.3 -399.7 -165.6C-374.5 -214.9 -327.9 -255.4 -281.4 -281.4C-234.9 -307.5 -188.5 -319 -141.6 -341.8C-94.7 -364.6 -47.3 -398.6 0 -432.7L0 0Z" fill="#42247d"></path><path d="M-216.3 0C-214.4 -29.1 -212.5 -58.1 -199.9 -82.8C-187.3 -107.4 -164 -127.7 -140.7 -140.7C-117.5 -153.7 -94.2 -159.5 -70.8 -170.9C-47.3 -182.3 -23.7 -199.3 0 -216.3L0 0Z" fill="#6528f7"></path></g><g transform="translate(0, 0)"><path d="M432.7 0C422 53.3 411.3 106.5 393.6 163C375.8 219.5 350.9 279.3 305.9 305.9C261 332.6 195.9 326.2 141.6 341.8C87.3 357.4 43.6 395.1 0 432.7L0 0Z" fill="#42247d"></path><path d="M216.3 0C211 26.6 205.7 53.3 196.8 81.5C187.9 109.8 175.5 139.6 153 153C130.5 166.3 98 163.1 70.8 170.9C43.6 178.7 21.8 197.5 0 216.3L0 0Z" fill="#6528f7"></path></g></svg>