<svg id="visual" viewBox="0 0 500 900" width="500" height="900" xmlns="http://www.w3.org/2000/svg" xmlns:xlink="http://www.w3.org/1999/xlink" version="1.1"><rect x="0" y="0" width="500" height="900" fill="#161616"></rect><defs><linearGradient id="grad1_0" x1="0%" y1="100%" x2="100%" y2="0%"><stop offset="30%" stop-color="#6528f7" stop-opacity="1"></stop><stop offset="70%" stop-color="#6528f7" stop-opacity="1"></stop></linearGradient></defs><defs><linearGradient id="grad1_1" x1="0%" y1="100%" x2="100%" y2="0%"><stop offset="30%" stop-color="#6528f7" stop-opacity="1"></stop><stop offset="70%" stop-color="#161616" stop-opacity="1"></stop></linearGradient></defs><defs><linearGradient id="grad2_0" x1="0%" y1="100%" x2="100%" y2="0%"><stop offset="30%" stop-color="#6528f7" stop-opacity="1"></stop><stop offset="70%" stop-color="#6528f7" stop-opacity="1"></stop></linearGradient></defs><defs><linearGradient id="grad2_1" x1="0%" y1="100%" x2="100%" y2="0%"><stop offset="30%" stop-color="#161616" stop-opacity="1"></stop><stop offset="70%" stop-color="#6528f7" stop-opacity="1"></stop></linearGradient></defs><g transform="translate(500, 900)"><path d="M-400 0C-391.4 -73.2 -382.8 -146.4 -346.4 -200C-310 -253.6 -245.9 -287.8 -183.5 -317.8C-121.1 -347.9 -60.6 -374 0 -400L0 0Z" fill="#42247d"></path><path d="M-200 0C-195.7 -36.6 -191.4 -73.2 -173.2 -100C-155 -126.8 -122.9 -143.9 -91.8 -158.9C-60.6 -174 -30.3 -187 0 -200L0 0Z" fill="#6528f7"></path></g><g transform="translate(0, 0)"><path d="M400 0C389.6 70.1 379.2 140.1 346.4 200C313.6 259.9 258.5 309.6 197 341.2C135.5 372.9 67.8 386.4 0 400L0 0Z" fill="#42247d"></path><path d="M200 0C194.8 35 189.6 70.1 173.2 100C156.8 129.9 129.2 154.8 98.5 170.6C67.8 186.4 33.9 193.2 0 200L0 0Z" fill="#6528f7"></path></g></svg>