<svg id="visual" viewBox="0 0 2000 300" width="2000" height="300" xmlns="http://www.w3.org/2000/svg" xmlns:xlink="http://www.w3.org/1999/xlink" version="1.1"><path d="M0 243L55.5 221.7C111 200.3 222 157.7 333.2 144.2C444.3 130.7 555.7 146.3 666.8 162C778 177.7 889 193.3 1000 193.2C1111 193 1222 177 1333.2 182.3C1444.3 187.7 1555.7 214.3 1666.8 219C1778 223.7 1889 206.3 1944.5 197.7L2000 189L2000 301L1944.5 301C1889 301 1778 301 1666.8 301C1555.7 301 1444.3 301 1333.2 301C1222 301 1111 301 1000 301C889 301 778 301 666.8 301C555.7 301 444.3 301 333.2 301C222 301 111 301 55.5 301L0 301Z" fill="#9400FF" stroke-linecap="round" stroke-linejoin="miter"></path></svg>