<svg id="visual" viewBox="0 0 2000 300" width="2000" height="300" xmlns="http://www.w3.org/2000/svg" xmlns:xlink="http://www.w3.org/1999/xlink" version="1.1"><path d="M0 71L41.7 83C83.3 95 166.7 119 250 128.2C333.3 137.3 416.7 131.7 500 124.5C583.3 117.3 666.7 108.7 750 97.8C833.3 87 916.7 74 1000 71.2C1083.3 68.3 1166.7 75.7 1250 89.3C1333.3 103 1416.7 123 1500 121.2C1583.3 119.3 1666.7 95.7 1750 93.7C1833.3 91.7 1916.7 111.3 1958.3 121.2L2000 131L2000 0L1958.3 0C1916.7 0 1833.3 0 1750 0C1666.7 0 1583.3 0 1500 0C1416.7 0 1333.3 0 1250 0C1166.7 0 1083.3 0 1000 0C916.7 0 833.3 0 750 0C666.7 0 583.3 0 500 0C416.7 0 333.3 0 250 0C166.7 0 83.3 0 41.7 0L0 0Z" fill="#9400FF" stroke-linecap="round" stroke-linejoin="miter"></path></svg>