<svg id="visual" viewBox="0 0 2000 1000" width="2000" height="1000" xmlns="http://www.w3.org/2000/svg" xmlns:xlink="http://www.w3.org/1999/xlink" version="1.1"><path d="M0 46L55.5 63.7C111 81.3 222 116.7 333.2 127.8C444.3 139 555.7 126 666.8 113C778 100 889 87 1000 87.2C1111 87.3 1222 100.7 1333.2 96.2C1444.3 91.7 1555.7 69.3 1666.8 65.3C1778 61.3 1889 75.7 1944.5 82.8L2000 90L2000 0L1944.5 0C1889 0 1778 0 1666.8 0C1555.7 0 1444.3 0 1333.2 0C1222 0 1111 0 1000 0C889 0 778 0 666.8 0C555.7 0 444.3 0 333.2 0C222 0 111 0 55.5 0L0 0Z" fill="#9400FF" stroke-linecap="round" stroke-linejoin="miter"></path></svg>