<svg id="visual" viewBox="0 0 2000 800" width="2000" height="800" xmlns="http://www.w3.org/2000/svg" xmlns:xlink="http://www.w3.org/1999/xlink" version="1.1"><rect x="0" y="0" width="2000" height="800" fill="#0e100f"></rect><defs><linearGradient id="grad1_0" x1="60%" y1="0%" x2="100%" y2="100%"><stop offset="0%" stop-color="#fde91f" stop-opacity="1"></stop><stop offset="100%" stop-color="#fde91f" stop-opacity="1"></stop></linearGradient></defs><defs><linearGradient id="grad1_1" x1="60%" y1="0%" x2="100%" y2="100%"><stop offset="0%" stop-color="#fde91f" stop-opacity="1"></stop><stop offset="100%" stop-color="#7fa334" stop-opacity="1"></stop></linearGradient></defs><defs><linearGradient id="grad1_2" x1="60%" y1="0%" x2="100%" y2="100%"><stop offset="0%" stop-color="#305830" stop-opacity="1"></stop><stop offset="100%" stop-color="#7fa334" stop-opacity="1"></stop></linearGradient></defs><defs><linearGradient id="grad1_3" x1="60%" y1="0%" x2="100%" y2="100%"><stop offset="0%" stop-color="#305830" stop-opacity="1"></stop><stop offset="100%" stop-color="#0e100f" stop-opacity="1"></stop></linearGradient></defs><defs><linearGradient id="grad2_0" x1="0%" y1="0%" x2="40%" y2="100%"><stop offset="0%" stop-color="#fde91f" stop-opacity="1"></stop><stop offset="100%" stop-color="#fde91f" stop-opacity="1"></stop></linearGradient></defs><defs><linearGradient id="grad2_1" x1="0%" y1="0%" x2="40%" y2="100%"><stop offset="0%" stop-color="#7fa334" stop-opacity="1"></stop><stop offset="100%" stop-color="#fde91f" stop-opacity="1"></stop></linearGradient></defs><defs><linearGradient id="grad2_2" x1="0%" y1="0%" x2="40%" y2="100%"><stop offset="0%" stop-color="#7fa334" stop-opacity="1"></stop><stop offset="100%" stop-color="#305830" stop-opacity="1"></stop></linearGradient></defs><defs><linearGradient id="grad2_3" x1="0%" y1="0%" x2="40%" y2="100%"><stop offset="0%" stop-color="#0e100f" stop-opacity="1"></stop><stop offset="100%" stop-color="#305830" stop-opacity="1"></stop></linearGradient></defs><g transform="translate(2000, 0)"><path d="M0 600C-60.3 548.9 -120.6 497.9 -197.5 476.7C-274.4 455.6 -367.9 464.3 -424.3 424.3C-480.6 384.2 -499.8 295.4 -522.9 216.6C-546 137.8 -573 68.9 -600 0L0 0Z" fill="#1c3323"></path><path d="M0 450C-45.2 411.7 -90.4 373.4 -148.1 357.5C-205.8 341.7 -275.9 348.2 -318.2 318.2C-360.5 288.2 -374.9 221.6 -392.2 162.4C-409.5 103.3 -429.8 51.7 -450 0L0 0Z" fill="#527d36"></path><path d="M0 300C-30.1 274.5 -60.3 248.9 -98.7 238.4C-137.2 227.8 -184 232.1 -212.1 212.1C-240.3 192.1 -249.9 147.7 -261.5 108.3C-273 68.9 -286.5 34.4 -300 0L0 0Z" fill="#b9c72c"></path><path d="M0 150C-15.1 137.2 -30.1 124.5 -49.4 119.2C-68.6 113.9 -92 116.1 -106.1 106.1C-120.2 96.1 -125 73.9 -130.7 54.1C-136.5 34.4 -143.3 17.2 -150 0L0 0Z" fill="#fde91f"></path></g><g transform="translate(0, 800)"><path d="M0 -600C78.9 -580.8 157.8 -561.7 215.8 -521.1C273.8 -480.5 310.9 -418.4 370.5 -370.5C430.1 -322.7 512.3 -289 554.3 -229.6C596.3 -170.2 598.2 -85.1 600 0L0 0Z" fill="#1c3323"></path><path d="M0 -450C59.2 -435.6 118.4 -421.3 161.9 -390.8C205.4 -360.3 233.2 -313.8 277.9 -277.9C322.6 -242 384.2 -216.7 415.7 -172.2C447.2 -127.7 448.6 -63.8 450 0L0 0Z" fill="#527d36"></path><path d="M0 -300C39.5 -290.4 78.9 -280.8 107.9 -260.5C136.9 -240.2 155.5 -209.2 185.3 -185.3C215.1 -161.3 256.2 -144.5 277.2 -114.8C298.2 -85.1 299.1 -42.6 300 0L0 0Z" fill="#b9c72c"></path><path d="M0 -150C19.7 -145.2 39.5 -140.4 54 -130.3C68.5 -120.1 77.7 -104.6 92.6 -92.6C107.5 -80.7 128.1 -72.2 138.6 -57.4C149.1 -42.6 149.5 -21.3 150 0L0 0Z" fill="#fde91f"></path></g></svg>