<svg id="visual" viewBox="0 0 2000 800" width="2000" height="800" xmlns="http://www.w3.org/2000/svg" xmlns:xlink="http://www.w3.org/1999/xlink" version="1.1"><rect x="0" y="0" width="2000" height="800" fill="#001220"></rect><defs><linearGradient id="grad1_0" x1="60%" y1="0%" x2="100%" y2="100%"><stop offset="0%" stop-color="#fbae3c" stop-opacity="1"></stop><stop offset="100%" stop-color="#fbae3c" stop-opacity="1"></stop></linearGradient></defs><defs><linearGradient id="grad1_1" x1="60%" y1="0%" x2="100%" y2="100%"><stop offset="0%" stop-color="#fbae3c" stop-opacity="1"></stop><stop offset="100%" stop-color="#cc5867" stop-opacity="1"></stop></linearGradient></defs><defs><linearGradient id="grad1_2" x1="60%" y1="0%" x2="100%" y2="100%"><stop offset="0%" stop-color="#593762" stop-opacity="1"></stop><stop offset="100%" stop-color="#cc5867" stop-opacity="1"></stop></linearGradient></defs><defs><linearGradient id="grad1_3" x1="60%" y1="0%" x2="100%" y2="100%"><stop offset="0%" stop-color="#593762" stop-opacity="1"></stop><stop offset="100%" stop-color="#001220" stop-opacity="1"></stop></linearGradient></defs><defs><linearGradient id="grad2_0" x1="0%" y1="0%" x2="40%" y2="100%"><stop offset="0%" stop-color="#fbae3c" stop-opacity="1"></stop><stop offset="100%" stop-color="#fbae3c" stop-opacity="1"></stop></linearGradient></defs><defs><linearGradient id="grad2_1" x1="0%" y1="0%" x2="40%" y2="100%"><stop offset="0%" stop-color="#cc5867" stop-opacity="1"></stop><stop offset="100%" stop-color="#fbae3c" stop-opacity="1"></stop></linearGradient></defs><defs><linearGradient id="grad2_2" x1="0%" y1="0%" x2="40%" y2="100%"><stop offset="0%" stop-color="#cc5867" stop-opacity="1"></stop><stop offset="100%" stop-color="#593762" stop-opacity="1"></stop></linearGradient></defs><defs><linearGradient id="grad2_3" x1="0%" y1="0%" x2="40%" y2="100%"><stop offset="0%" stop-color="#001220" stop-opacity="1"></stop><stop offset="100%" stop-color="#593762" stop-opacity="1"></stop></linearGradient></defs><g transform="translate(2000, 0)"><path d="M0 600C-78.4 591.8 -156.7 583.6 -229.6 554.3C-302.5 525 -369.9 474.6 -413 413C-456 351.3 -474.6 278.5 -501.7 207.8C-528.8 137.1 -564.4 68.6 -600 0L0 0Z" fill="#232745"></path><path d="M0 450C-58.8 443.9 -117.5 437.7 -172.2 415.7C-226.9 393.8 -277.5 355.9 -309.7 309.7C-342 263.5 -355.9 208.9 -376.2 155.8C-396.6 102.8 -423.3 51.4 -450 0L0 0Z" fill="#96446e"></path><path d="M0 300C-39.2 295.9 -78.4 291.8 -114.8 277.2C-151.3 262.5 -185 237.3 -206.5 206.5C-228 175.7 -237.3 139.2 -250.8 103.9C-264.4 68.6 -282.2 34.3 -300 0L0 0Z" fill="#f17c53"></path><path d="M0 150C-19.6 148 -39.2 145.9 -57.4 138.6C-75.6 131.3 -92.5 118.6 -103.2 103.2C-114 87.8 -118.6 69.6 -125.4 51.9C-132.2 34.3 -141.1 17.1 -150 0L0 0Z" fill="#fbae3c"></path></g><g transform="translate(0, 800)"><path d="M0 -600C69.1 -559.7 138.2 -519.4 200.9 -485C263.6 -450.6 319.9 -422.1 383.3 -383.3C446.6 -344.4 517 -295.2 554.3 -229.6C591.6 -164 595.8 -82 600 0L0 0Z" fill="#232745"></path><path d="M0 -450C51.8 -419.8 103.7 -389.6 150.7 -363.8C197.7 -338 239.9 -316.6 287.4 -287.4C335 -258.3 387.8 -221.4 415.7 -172.2C443.7 -123 446.9 -61.5 450 0L0 0Z" fill="#96446e"></path><path d="M0 -300C34.6 -279.9 69.1 -259.7 100.5 -242.5C131.8 -225.3 159.9 -211.1 191.6 -191.6C223.3 -172.2 258.5 -147.6 277.2 -114.8C295.8 -82 297.9 -41 300 0L0 0Z" fill="#f17c53"></path><path d="M0 -150C17.3 -139.9 34.6 -129.9 50.2 -121.3C65.9 -112.7 80 -105.5 95.8 -95.8C111.7 -86.1 129.3 -73.8 138.6 -57.4C147.9 -41 149 -20.5 150 0L0 0Z" fill="#fbae3c"></path></g></svg>