<svg id="visual" viewBox="0 0 1900 600" width="1900" height="600" xmlns="http://www.w3.org/2000/svg" xmlns:xlink="http://www.w3.org/1999/xlink" version="1.1"><rect x="0" y="0" width="1900" height="600" fill="#0e100f"></rect><path d="M0 528L45.2 530C90.3 532 180.7 536 271.2 530.8C361.7 525.7 452.3 511.3 542.8 504.7C633.3 498 723.7 499 814.2 503.3C904.7 507.7 995.3 515.3 1085.8 512C1176.3 508.7 1266.7 494.3 1357.2 500.5C1447.7 506.7 1538.3 533.3 1628.8 541.3C1719.3 549.3 1809.7 538.7 1854.8 533.3L1900 528L1900 601L1854.8 601C1809.7 601 1719.3 601 1628.8 601C1538.3 601 1447.7 601 1357.2 601C1266.7 601 1176.3 601 1085.8 601C995.3 601 904.7 601 814.2 601C723.7 601 633.3 601 542.8 601C452.3 601 361.7 601 271.2 601C180.7 601 90.3 601 45.2 601L0 601Z" fill="#fa7268"></path><path d="M0 546L45.2 538.7C90.3 531.3 180.7 516.7 271.2 518.2C361.7 519.7 452.3 537.3 542.8 539.3C633.3 541.3 723.7 527.7 814.2 523.5C904.7 519.3 995.3 524.7 1085.8 526.5C1176.3 528.3 1266.7 526.7 1357.2 527.3C1447.7 528 1538.3 531 1628.8 527.8C1719.3 524.7 1809.7 515.3 1854.8 510.7L1900 506L1900 601L1854.8 601C1809.7 601 1719.3 601 1628.8 601C1538.3 601 1447.7 601 1357.2 601C1266.7 601 1176.3 601 1085.8 601C995.3 601 904.7 601 814.2 601C723.7 601 633.3 601 542.8 601C452.3 601 361.7 601 271.2 601C180.7 601 90.3 601 45.2 601L0 601Z" fill="#ef5f67"></path><path d="M0 583L45.2 582.3C90.3 581.7 180.7 580.3 271.2 569.7C361.7 559 452.3 539 542.8 535C633.3 531 723.7 543 814.2 549.3C904.7 555.7 995.3 556.3 1085.8 560.2C1176.3 564 1266.7 571 1357.2 567.7C1447.7 564.3 1538.3 550.7 1628.8 545C1719.3 539.3 1809.7 541.7 1854.8 542.8L1900 544L1900 601L1854.8 601C1809.7 601 1719.3 601 1628.8 601C1538.3 601 1447.7 601 1357.2 601C1266.7 601 1176.3 601 1085.8 601C995.3 601 904.7 601 814.2 601C723.7 601 633.3 601 542.8 601C452.3 601 361.7 601 271.2 601C180.7 601 90.3 601 45.2 601L0 601Z" fill="#e34c67"></path><path d="M0 584L45.2 577.2C90.3 570.3 180.7 556.7 271.2 556.5C361.7 556.3 452.3 569.7 542.8 574.5C633.3 579.3 723.7 575.7 814.2 573.7C904.7 571.7 995.3 571.3 1085.8 566.3C1176.3 561.3 1266.7 551.7 1357.2 553.3C1447.7 555 1538.3 568 1628.8 569.7C1719.3 571.3 1809.7 561.7 1854.8 556.8L1900 552L1900 601L1854.8 601C1809.7 601 1719.3 601 1628.8 601C1538.3 601 1447.7 601 1357.2 601C1266.7 601 1176.3 601 1085.8 601C995.3 601 904.7 601 814.2 601C723.7 601 633.3 601 542.8 601C452.3 601 361.7 601 271.2 601C180.7 601 90.3 601 45.2 601L0 601Z" fill="#d53867"></path><path d="M0 585L45.2 583.3C90.3 581.7 180.7 578.3 271.2 580C361.7 581.7 452.3 588.3 542.8 588.5C633.3 588.7 723.7 582.3 814.2 577.7C904.7 573 995.3 570 1085.8 573.2C1176.3 576.3 1266.7 585.7 1357.2 587.8C1447.7 590 1538.3 585 1628.8 585.2C1719.3 585.3 1809.7 590.7 1854.8 593.3L1900 596L1900 601L1854.8 601C1809.7 601 1719.3 601 1628.8 601C1538.3 601 1447.7 601 1357.2 601C1266.7 601 1176.3 601 1085.8 601C995.3 601 904.7 601 814.2 601C723.7 601 633.3 601 542.8 601C452.3 601 361.7 601 271.2 601C180.7 601 90.3 601 45.2 601L0 601Z" fill="#c62368"></path></svg>