<?xml version="1.0" encoding="utf-8"?>
<!-- Generator: Adobe Illustrator 28.0.0, SVG Export Plug-In . SVG Version: 6.00 Build 0)  -->
<svg version="1.1" id="Warstwa_1" xmlns="http://www.w3.org/2000/svg" xmlns:xlink="http://www.w3.org/1999/xlink" x="0px" y="0px"
	 viewBox="0 0 850 250" style="enable-background:new 0 0 850 250;" xml:space="preserve">
<style type="text/css">
	.st0{fill:#ABFE11;}
	.st1{fill:#5C6779;}
	.st2{fill:#F1380A;}
	.st3{fill:#5D687A;}
	.st4{fill:#FC7106;}
	.st5{fill:#F1390B;}
	.st6{fill:#FED787;}
	.st7{fill:#B6FBE5;}
	.st8{fill:#FEC705;}
	.st9{fill:#FC7004;}
	.st10{fill:#FED788;}
	.st11{fill:#AAFE0E;}
	.st12{fill:#070707;}
	.st13{fill:#FD9305;}
	.st14{fill:#FD9D03;}
	.st15{fill:#FDA005;}
	.st16{fill:#FDA603;}
	.st17{fill:#FD9603;}
	.st18{fill:#FC7B02;}
	.st19{fill:#FD8702;}
	.st20{fill:#FEBC05;}
	.st21{fill:#FDB101;}
	.st22{fill:#FDAA02;}
	.st23{fill:#FDBF09;}
	.st24{fill:#FDB402;}
	.st25{fill:#FD8F08;}
	.st26{fill:#FEFEFD;}
</style>
<g>
	<g>
		<path class="st0" d="M241.05,91.35c1.6,20.24,3.14,39.79,4.71,59.68c-3.8,0-7.35,0-11.24,0c-0.95-14.15-1.88-28.15-2.82-42.15
			c-0.42-0.04-0.85-0.07-1.27-0.11c-3.1,11.91-6.21,23.82-9.26,35.53c-0.61,0.25-0.91,0.47-1.21,0.48
			c-9.76,0.53-9.76,0.53-12.29-8.69c-2.42-8.83-4.82-17.66-7.25-26.48c-0.33-1.19-0.84-2.33-1.52-4.19
			c-0.76,15.77-1.48,30.65-2.2,45.71c-3.98,0-7.41,0-11.39,0c1.61-19.91,3.19-39.59,4.8-59.52c5.03,0,9.79,0,14.96,0
			c3.46,13.35,6.94,26.79,10.74,41.49c3.3-13.55,6.38-25.8,9.18-38.11c0.64-2.82,1.68-3.92,4.61-3.72
			C233.22,91.54,236.87,91.35,241.05,91.35z"/>
		<path class="st1" d="M296.51,151.78c0-20.48,0-40.06,0-60.3c10.75,0.1,21.68-1.61,32.12,3.05c5.42,2.42,9.25,6.47,11.25,12.06
			c3.36,9.41,3.45,18.98,0.19,28.36c-2.96,8.53-9.28,13.99-18.14,15.25C313.64,151.39,305.17,151.3,296.51,151.78z M307.94,142.1
			c14.34,1.77,20.06-2.41,21.93-15.9c0.36-2.61,0.35-5.31,0.22-7.95c-0.72-14.34-7.37-19.67-22.15-17.59
			C307.94,114.33,307.94,128.04,307.94,142.1z"/>
		<path class="st2" d="M580.21,148.3c0,7.24,0,13.88,0,20.87c-3.54,0.41-6.95,0.8-10.74,1.23c0-21.58,0-42.96,0-64.69
			c2.85,0,5.91,0,9.35,0c0.2,1.38,0.42,2.81,0.65,4.39c0.45-0.12,1-0.1,1.28-0.36c5.27-5.05,11.34-6.88,18.32-4.29
			c7.01,2.6,9.44,8.62,10.27,15.3c0.54,4.4,0.49,8.95,0.11,13.38C608.33,147.13,596.57,158.44,580.21,148.3z M580.28,128.97
			c0,1.82,0,3.65,0,5.47c0,5.95,2.02,8.59,7.13,9.33c4.7,0.68,8.91-1.76,9.69-7.09c0.82-5.62,0.67-11.5,0.09-17.18
			c-0.45-4.41-3.53-7.07-8.34-6.66c-4.86,0.41-8.51,4.39-8.57,9.16C580.26,124.33,580.28,126.65,580.28,128.97z"/>
		<path class="st3" d="M537.42,104.35c13.3,0.06,21.67,9.29,21.72,23.93c0.04,14.54-8.83,24.17-22.2,24.09
			c-13.48-0.09-21.8-9.47-21.66-24.44C515.41,113.55,524.11,104.29,537.42,104.35z M547.63,128.48c-0.48-2.93-0.71-5.92-1.49-8.77
			c-1.17-4.26-4.1-6.84-8.64-6.88c-4.65-0.04-8.56,2.16-9.09,6.81c-0.68,5.95-0.62,12.13,0.16,18.07c0.55,4.16,4.34,6.12,8.54,6.17
			c4.5,0.05,7.62-2.29,8.91-6.54C546.88,134.52,547.1,131.51,547.63,128.48z"/>
		<path class="st4" d="M74.79,63.22c5.06-9.43,13.63-14.74,23.49-16.47c11.68-2.05,23.7-2.39,35.6-2.79
			c3.38-0.12,7.17,1.57,10.18,3.41c4.79,2.92,4.9,9.26-0.04,11.85c-4.08,2.14-8.99,3.02-13.64,3.71
			c-7.97,1.17-16.02,1.75-24.04,2.58c-2.09-0.72-4.15-1.98-6.26-2.05C91.67,63.17,83.23,63.27,74.79,63.22z"/>
		<path class="st5" d="M391.71,131.63c-10.6,0-19.88,0-29.15,0c-0.01,12.1,8.12,15.17,22.43,8.53c1.4,1.87,2.85,3.8,4.29,5.72
			c-10.57,9.02-26.11,8.56-33.86-0.81c-8.04-9.72-6.48-28.62,3.02-36.46c10.68-8.82,27.83-3.73,31.52,9.58
			C391.09,122.24,391.09,126.59,391.71,131.63z M379.96,124.13c-0.31-8.29-3.06-11.81-8.87-11.77c-5.57,0.03-8.52,3.93-8.74,11.77
			C368.12,124.13,373.87,124.13,379.96,124.13z"/>
		<path class="st6" d="M658.58,131.45c-9.32,0-18.44,0-27.47,0c-1.52,7.47,4.23,13.62,11.39,12.56c1.79-0.26,3.79-0.54,5.22-1.51
			c4.97-3.37,7.4-0.99,9.1,3.57c-7.31,6.81-19.05,8.35-27.8,3.64c-7.81-4.2-12.34-15.32-10.46-25.66
			c2.76-15.18,12.88-22.33,26.53-18.76C655.25,107.94,660.93,118.53,658.58,131.45z M630.74,124c5.68,0,11.38,0,17.07,0
			c0.12-7.86-3.24-12-9.15-11.63C633.24,112.71,630.11,117.21,630.74,124z"/>
		<path class="st7" d="M453.69,132.02c-1.33,7.65,6.44,15.42,16.59,10.59c4.95-2.36,7.61-1.83,9.58,3.67
			c-6.95,5.9-14.96,7.58-23.86,5.03c-7.83-2.24-12.03-7.87-13.75-15.57c-2.24-10.02-0.96-19.23,6.8-26.62
			c6.04-5.74,16.63-6.36,24.19-1.76c6.05,3.69,10.96,15.48,8.82,21.97c-0.33,0.99-2.44,1.93-3.75,1.96
			c-7.82,0.22-15.65,0.17-23.47,0.23C454.55,131.54,454.25,131.78,453.69,132.02z M470.77,124.08c0.89-4.35-0.04-8.29-3.71-10.01
			c-2.59-1.22-6.56-1.35-9.18-0.24c-3.95,1.67-4.99,5.71-4.16,10.25C459.49,124.08,465.04,124.08,470.77,124.08z"/>
		<path class="st8" d="M108.29,175.24c7.6,0.43,15.23,0.58,22.8,1.39c4.2,0.45,8.66,1.25,12.34,3.16c5.68,2.96,5.48,9.35,0.04,12.81
			c-1.79,1.14-3.88,2.35-5.9,2.48c-16.61,1.04-33.4,2.22-48.74-5.99c-4.77-2.55-8.5-7.07-12.7-10.69c3.41-0.35,6.8-0.91,10.22-1.01
			c5.91-0.17,11.84,0.09,17.74-0.14C105.51,177.21,106.89,175.95,108.29,175.24z"/>
		<path class="st9" d="M741.62,64.68c-7.27-0.45-14.59-0.58-21.81-1.46c-3.81-0.47-7.9-1.54-11.08-3.57
			c-4.54-2.9-4.34-8.42-0.05-11.78c1.77-1.39,4.05-2.78,6.19-2.93c15.27-1.08,30.78-2.36,44.74,5.58
			c4.94,2.81,8.64,7.79,12.91,11.77c-7.4,0.36-14.81,0.63-22.21,1.11C747.4,63.59,744.52,64.24,741.62,64.68z"/>
		<path class="st10" d="M415.7,141.55c2.88-10.38,5.44-19.77,8.09-29.14c2.03-7.21,2.08-7.21,9.56-7.04
			c1.12,0.02,2.24,0.2,3.86,0.35c-3.84,11.67-7.57,23.01-11.3,34.35c-0.31,0.95-0.62,1.9-0.94,2.84
			c-2.91,8.72-5.13,10.07-14.24,8.37c-0.93-0.17-2.18-1.03-2.46-1.85c-4.72-14.02-9.32-28.07-13.91-42.14
			c-0.13-0.4,0.16-0.94,0.35-1.93c2.93,0,5.93-0.29,8.83,0.15c1.11,0.17,2.51,1.83,2.87,3.07c2.72,9.41,5.21,18.89,7.79,28.35
			C414.55,138.16,414.99,139.37,415.7,141.55z"/>
		<path class="st8" d="M770.99,181.63c-8.24,11.11-20.25,14.38-33.08,15.49c-6.42,0.55-12.93,0.27-19.39,0.2
			c-1.79-0.02-3.65-0.39-5.33-1.02c-4.04-1.52-7.81-3.75-7.57-8.71c0.24-4.76,3.58-7.19,8.03-8.19c0,0,0.13-0.05,0.13-0.05
			c5.5-0.32,11-0.65,16.5-0.97c1.88,0.66,3.74,1.8,5.65,1.9C747.62,180.86,759.31,181.2,770.99,181.63z"/>
		<path class="st7" d="M163.28,91.64c4.39,0,7.84,0,11.54,0c0.16,1.36,0.4,2.48,0.41,3.6c0.03,15.66,0.1,31.32-0.01,46.99
			c-0.09,12.56-6.04,20.12-17.63,22.59c-0.38-4.25-1.01-8.02,2.83-11.73c2.11-2.04,2.68-6.39,2.74-9.73
			c0.27-15.32,0.12-30.66,0.12-45.98C163.28,95.58,163.28,93.8,163.28,91.64z"/>
		<path class="st11" d="M510.51,150.37c-12.63,4.58-19.21,0.07-19.23-11.85c-0.02-15.8-0.01-31.6,0-47.41c0-1.46,0.13-2.93,0.2-4.6
			c3.64-0.37,7.03-0.72,10.95-1.12c0,9.49,0,18.6,0,27.71c0,8.32,0.01,16.63-0.01,24.95c-0.01,2.78-0.05,4.94,3.9,5.6
			C507.98,143.92,509.01,147.8,510.51,150.37z"/>
		<path class="st12" d="M274.61,98.68c3.32-1.48,6.63-2.95,10.24-4.56c1.01,2.97,1.97,5.76,3.1,9.07
			c-3.97,0.88-7.77,1.73-12.42,2.76c2.91,3.23,5.5,6.1,8.51,9.43c-2.59,1.9-5.07,3.72-8.02,5.88c-2.11-3.72-4.03-7.12-6.27-11.08
			c-2.17,3.73-4.17,7.15-6.41,10.99c-2.66-1.9-5.15-3.67-7.98-5.69c2.86-3.23,5.46-6.16,8.5-9.6c-4.33-0.9-8.13-1.68-12.45-2.57
			c1.01-3.06,1.95-5.94,3-9.13c3.52,1.58,6.77,3.04,10.61,4.77c0-4.48,0-8.3,0-12.36c3.02,0,6.11,0,9.6,0
			c-0.37,3.86-0.74,7.6-1.1,11.34c0.04,0.4,0.08,0.79,0.12,1.19C273.95,98.97,274.28,98.83,274.61,98.68z"/>
		<path class="st7" d="M669.71,105.74c9.15-0.97,9.15-0.97,9.91,7.33c4.36-5.1,8.17-10.85,16.59-7.96c-0.31,2.4-0.58,4.94-0.98,7.45
			c-0.66,4.13-4.06,2.4-6.39,2.86c-4.55,0.9-8.45,6.53-8.53,12.73c-0.09,7.46-0.02,14.92-0.02,22.8c-3.64,0-6.87,0-10.57,0
			C669.71,136.03,669.71,121.04,669.71,105.74z"/>
		<path class="st13" d="M46.29,113.36c8.24-5.52,16.48-11.05,24.72-16.57c1.68,0.86,3.31,2.34,5.04,2.46
			c8.06,0.57,16.15,0.77,24.23,1.11c-3.05,8.6-10.64,12.3-17.77,16.51c-2.02-0.84-4.01-2.31-6.06-2.4
			c-6.79-0.31-13.6-0.01-20.39-0.16C52.8,114.24,49.55,113.69,46.29,113.36z"/>
		<path class="st14" d="M46.29,113.36c3.26,0.33,6.51,0.88,9.77,0.95c6.8,0.15,13.61-0.15,20.39,0.16c2.05,0.09,4.04,1.56,6.06,2.4
			c-1,0.83-2,1.66-3.97,3.29c3.83,2.48,7.32,4.74,10.81,7c-1.41,0.73-2.8,2.06-4.23,2.09c-8.11,0.2-16.23-0.03-24.35,0.18
			c-2.16,0.06-4.3,1.15-6.44,1.76c-2.81-1.64-5.77-3.07-8.39-4.98C40.26,122.08,40.46,117.53,46.29,113.36z"/>
		<path class="st15" d="M803.48,119.27c1.62,3.71-0.59,6.15-3.16,7.97c-5.53,3.93-11.3,7.53-16.98,11.26
			c-2.17-0.72-4.3-1.92-6.5-2.06c-8.15-0.54-16.32-0.74-24.49-1.06c3.58-3.29,7.11-6.63,10.75-9.86c2.06-1.83,4.29-3.46,6.44-5.18
			c9.03,0.34,18.05,0.83,27.08,0.91C798.91,121.27,801.2,119.97,803.48,119.27z"/>
		<path class="st16" d="M54.34,131.2c2.15-0.61,4.28-1.7,6.44-1.76c8.11-0.21,16.23,0.02,24.35-0.18c1.43-0.04,2.82-1.36,4.23-2.09
			c7.73,3.62,11.13,10.25,12.64,18.19c-9.93,0.01-19.86,0.02-29.79,0.03c-3.94-3.33-7.83-6.73-11.84-9.98
			C58.48,133.87,56.36,132.6,54.34,131.2z"/>
		<path class="st17" d="M803.48,119.27c-2.29,0.69-4.58,2-6.86,1.98c-9.03-0.08-18.05-0.57-27.08-0.91
			c-5.37-4.22-10.74-8.44-16.11-12.66c3.07-0.44,6.12-1.16,9.2-1.26c6.09-0.2,12.19,0.06,18.27-0.14c1.6-0.05,3.16-1.08,4.74-1.65
			c5.53,3.99,11.07,7.97,16.6,11.96c0.1,0.25,0.26,0.47,0.47,0.65C802.97,117.91,803.23,118.59,803.48,119.27z"/>
		<path class="st18" d="M74.79,63.22c8.43,0.05,16.87-0.05,25.3,0.23c2.11,0.07,4.17,1.34,6.26,2.05
			c-5.82,4.1-3.55,10.38-4.27,15.85c-9.89,0-19.78,0-29.67,0C73.2,75.31,74,69.27,74.79,63.22z"/>
		<path class="st19" d="M72.41,81.36c9.89,0,19.78,0,29.67,0c-0.06,4.7-0.13,9.4-0.19,14.09c-0.25,0.95-0.51,1.9-0.76,2.86
			c-0.28,0.69-0.57,1.37-0.85,2.06c-8.08-0.33-16.17-0.53-24.23-1.11c-1.73-0.12-3.36-1.6-5.04-2.46
			C71.48,91.65,71.94,86.5,72.41,81.36z"/>
		<path class="st20" d="M108.29,175.24c-1.4,0.7-2.78,1.96-4.21,2.02c-5.91,0.23-11.83-0.02-17.74,0.14
			c-3.41,0.1-6.81,0.65-10.22,1.01c-4.2-5.04-4.12-11.01-3.7-17.05c9.89,0,19.79,0,29.68,0c0.55,3.24,0.7,6.64,1.82,9.67
			C104.55,172.74,106.78,173.86,108.29,175.24z"/>
		<path class="st21" d="M102.1,161.35c-9.89,0-19.79,0-29.68,0c-0.07-5.32-0.13-10.65-0.2-15.97c9.93-0.01,19.86-0.02,29.79-0.03
			C102.04,150.69,102.07,156.02,102.1,161.35z"/>
		<path class="st22" d="M752.36,135.38c8.17,0.32,16.34,0.52,24.49,1.06c2.2,0.15,4.34,1.35,6.5,2.06
			c-5.13,3.18-8.15,7.54-7.72,13.83c-9.15,0.01-18.3,0.02-27.44,0.03c0.05-2.4,0.1-4.79,0.15-7.18c0,0,0.04-0.42,0.04-0.42
			C749.7,141.63,751.03,138.51,752.36,135.38z"/>
		<path class="st18" d="M741.62,64.68c2.9-0.44,5.78-1.09,8.7-1.28c7.4-0.48,14.81-0.76,22.21-1.11c0.9,2.76,1.81,5.52,2.71,8.28
			c0.05,0.65,0.09,1.31,0.14,1.96c0.06,1.93,0.12,3.87,0.19,5.8c-9.14,0.35-18.27,0.69-27.41,1.04c-0.14-2.37-0.27-4.74-0.41-7.11
			c0.07-0.09,0.23-0.22,0.21-0.28c-0.08-0.2-0.21-0.38-0.33-0.57C745.62,69.17,743.62,66.92,741.62,64.68z"/>
		<path class="st23" d="M770.99,181.63c-11.68-0.42-23.37-0.77-35.05-1.35c-1.91-0.1-3.77-1.24-5.65-1.9
			c0.81-0.13,1.62-0.34,2.43-0.38c9.87-0.42,15.9-2.75,14.94-15.84c-0.14-1.93,0.3-3.91,0.48-5.87c0.38,2.19,1.18,4.4,1.05,6.55
			c-0.25,4.24,1.75,5.69,5.59,5.51c6.89-0.33,13.79-0.66,20.68-0.99C775.92,172.73,774.88,177.62,770.99,181.63z"/>
		<path class="st24" d="M775.47,167.36c-6.89,0.33-13.79,0.66-20.68,0.99c-3.85,0.18-5.84-1.27-5.59-5.51
			c0.13-2.16-0.67-4.37-1.05-6.55c0.01-1.31,0.02-2.62,0.03-3.93c9.15-0.01,18.3-0.02,27.44-0.03
			C775.57,157.34,775.52,162.35,775.47,167.36z"/>
		<path class="st19" d="M748.15,79.37c9.14-0.35,18.27-0.69,27.41-1.04c0.09,5.34,0.17,10.67,0.26,16.01c-8.66,0-17.32,0-25.69,0
			c-0.79-2.8-1.39-4.91-1.99-7.03C748.15,84.66,748.15,82.01,748.15,79.37z"/>
		<path class="st25" d="M748.15,87.31c0.6,2.12,1.2,4.24,1.99,7.03c8.37,0,17.03,0,25.69,0c1.25,5.36,5.56,7.81,9.83,10.28
			c-1.58,0.58-3.14,1.6-4.74,1.65c-6.09,0.2-12.19-0.06-18.27,0.14c-3.08,0.1-6.13,0.82-9.2,1.26
			C747.74,101.91,746.99,94.86,748.15,87.31z"/>
		<path class="st13" d="M101.13,98.3c0.25-0.95,0.51-1.9,0.76-2.86C101.64,96.4,101.39,97.35,101.13,98.3z"/>
		<path class="st25" d="M775.38,72.53c-0.05-0.66-0.09-1.31-0.14-1.96C775.29,71.22,775.33,71.87,775.38,72.53z"/>
		<path class="st15" d="M802.72,117.23c-0.21-0.18-0.36-0.39-0.47-0.65C802.66,116.63,802.82,116.85,802.72,117.23z"/>
		<path class="st25" d="M747.63,71.41c0.11,0.19,0.25,0.37,0.33,0.57c0.02,0.06-0.13,0.18-0.21,0.28
			C747.45,72.01,747.41,71.73,747.63,71.41z"/>
		<polygon class="st23" points="748.37,144.76 748.33,145.18 748.03,144.91 		"/>
		<polygon class="st23" points="713.79,179.35 713.66,179.4 713.8,179.2 		"/>
		<path class="st26" d="M274.61,98.68c-0.33,0.15-0.66,0.29-0.99,0.44c-0.04-0.4-0.08-0.79-0.12-1.19
			C273.87,98.18,274.24,98.43,274.61,98.68z"/>
	</g>
</g>
</svg>
