<svg xmlns="http://www.w3.org/2000/svg" version="1.1" xmlns:xlink="http://www.w3.org/1999/xlink" xmlns:svgjs="http://svgjs.dev/svgjs" width="1920" height="1000" preserveAspectRatio="none" viewBox="0 0 1920 1000"><g mask="url(&quot;#SvgjsMask2401&quot;)" fill="none"><rect width="1920" height="1000" x="0" y="0" fill="url(&quot;#SvgjsRadialGradient2402&quot;)"></rect><path d="M217 985L216 1328" stroke-width="8" stroke="url(&quot;#SvgjsLinearGradient2403&quot;)" stroke-linecap="round" class="Up"></path><path d="M49 643L48 139" stroke-width="8" stroke="url(&quot;#SvgjsLinearGradient2403&quot;)" stroke-linecap="round" class="Up"></path><path d="M1151 534L1150 -202" stroke-width="8" stroke="url(&quot;#SvgjsLinearGradient2403&quot;)" stroke-linecap="round" class="Up"></path><path d="M1031 402L1030 992" stroke-width="6" stroke="url(&quot;#SvgjsLinearGradient2404&quot;)" stroke-linecap="round" class="Down"></path><path d="M1829 564L1828 1005" stroke-width="10" stroke="url(&quot;#SvgjsLinearGradient2404&quot;)" stroke-linecap="round" class="Down"></path><path d="M795 783L794 375" stroke-width="8" stroke="url(&quot;#SvgjsLinearGradient2404&quot;)" stroke-linecap="round" class="Down"></path><path d="M1383 188L1382 -472" stroke-width="10" stroke="url(&quot;#SvgjsLinearGradient2403&quot;)" stroke-linecap="round" class="Up"></path><path d="M1778 21L1777 700" stroke-width="10" stroke="url(&quot;#SvgjsLinearGradient2403&quot;)" stroke-linecap="round" class="Up"></path><path d="M1699 968L1698 276" stroke-width="10" stroke="url(&quot;#SvgjsLinearGradient2403&quot;)" stroke-linecap="round" class="Up"></path><path d="M564 903L563 1527" stroke-width="6" stroke="url(&quot;#SvgjsLinearGradient2403&quot;)" stroke-linecap="round" class="Up"></path><path d="M363 649L362 1209" stroke-width="10" stroke="url(&quot;#SvgjsLinearGradient2403&quot;)" stroke-linecap="round" class="Up"></path><path d="M1559 330L1558 840" stroke-width="10" stroke="url(&quot;#SvgjsLinearGradient2404&quot;)" stroke-linecap="round" class="Down"></path><path d="M855 154L854 -302" stroke-width="8" stroke="url(&quot;#SvgjsLinearGradient2403&quot;)" stroke-linecap="round" class="Up"></path><path d="M1909 822L1908 322" stroke-width="8" stroke="url(&quot;#SvgjsLinearGradient2404&quot;)" stroke-linecap="round" class="Down"></path><path d="M890 168L889 -559" stroke-width="10" stroke="url(&quot;#SvgjsLinearGradient2404&quot;)" stroke-linecap="round" class="Down"></path><path d="M583 699L582 979" stroke-width="6" stroke="url(&quot;#SvgjsLinearGradient2404&quot;)" stroke-linecap="round" class="Down"></path><path d="M1591 710L1590 1250" stroke-width="6" stroke="url(&quot;#SvgjsLinearGradient2404&quot;)" stroke-linecap="round" class="Down"></path><path d="M1724 179L1723 838" stroke-width="10" stroke="url(&quot;#SvgjsLinearGradient2404&quot;)" stroke-linecap="round" class="Down"></path><path d="M422 629L421 47" stroke-width="6" stroke="url(&quot;#SvgjsLinearGradient2404&quot;)" stroke-linecap="round" class="Down"></path><path d="M1829 203L1828 -100" stroke-width="10" stroke="url(&quot;#SvgjsLinearGradient2403&quot;)" stroke-linecap="round" class="Up"></path><path d="M1774 486L1773 1156" stroke-width="10" stroke="url(&quot;#SvgjsLinearGradient2404&quot;)" stroke-linecap="round" class="Down"></path><path d="M31 582L30 1311" stroke-width="10" stroke="url(&quot;#SvgjsLinearGradient2404&quot;)" stroke-linecap="round" class="Down"></path><path d="M1118 463L1117 186" stroke-width="6" stroke="url(&quot;#SvgjsLinearGradient2404&quot;)" stroke-linecap="round" class="Down"></path><path d="M678 704L677 1204" stroke-width="10" stroke="url(&quot;#SvgjsLinearGradient2403&quot;)" stroke-linecap="round" class="Up"></path><path d="M992 612L991 1287" stroke-width="10" stroke="url(&quot;#SvgjsLinearGradient2403&quot;)" stroke-linecap="round" class="Up"></path><path d="M293 867L292 255" stroke-width="10" stroke="url(&quot;#SvgjsLinearGradient2404&quot;)" stroke-linecap="round" class="Down"></path><path d="M1556 419L1555 -214" stroke-width="6" stroke="url(&quot;#SvgjsLinearGradient2404&quot;)" stroke-linecap="round" class="Down"></path><path d="M110 440L109 -78" stroke-width="6" stroke="url(&quot;#SvgjsLinearGradient2403&quot;)" stroke-linecap="round" class="Up"></path><path d="M716 806L715 227" stroke-width="6" stroke="url(&quot;#SvgjsLinearGradient2403&quot;)" stroke-linecap="round" class="Up"></path><path d="M1352 208L1351 -366" stroke-width="6" stroke="url(&quot;#SvgjsLinearGradient2404&quot;)" stroke-linecap="round" class="Down"></path><path d="M1778 116L1777 815" stroke-width="6" stroke="url(&quot;#SvgjsLinearGradient2403&quot;)" stroke-linecap="round" class="Up"></path><path d="M646 639L645 1096" stroke-width="8" stroke="url(&quot;#SvgjsLinearGradient2403&quot;)" stroke-linecap="round" class="Up"></path><path d="M1238 210L1237 -94" stroke-width="10" stroke="url(&quot;#SvgjsLinearGradient2404&quot;)" stroke-linecap="round" class="Down"></path><path d="M1113 435L1112 846" stroke-width="10" stroke="url(&quot;#SvgjsLinearGradient2404&quot;)" stroke-linecap="round" class="Down"></path><path d="M462 433L461 -317" stroke-width="6" stroke="url(&quot;#SvgjsLinearGradient2403&quot;)" stroke-linecap="round" class="Up"></path><path d="M341 278L340 -81" stroke-width="8" stroke="url(&quot;#SvgjsLinearGradient2403&quot;)" stroke-linecap="round" class="Up"></path><path d="M1207 229L1206 778" stroke-width="6" stroke="url(&quot;#SvgjsLinearGradient2404&quot;)" stroke-linecap="round" class="Down"></path><path d="M504 540L503 825" stroke-width="6" stroke="url(&quot;#SvgjsLinearGradient2403&quot;)" stroke-linecap="round" class="Up"></path><path d="M315 62L314 -682" stroke-width="6" stroke="url(&quot;#SvgjsLinearGradient2404&quot;)" stroke-linecap="round" class="Down"></path><path d="M39 286L38 908" stroke-width="10" stroke="url(&quot;#SvgjsLinearGradient2404&quot;)" stroke-linecap="round" class="Down"></path><path d="M1234 974L1233 1454" stroke-width="6" stroke="url(&quot;#SvgjsLinearGradient2404&quot;)" stroke-linecap="round" class="Down"></path><path d="M254 159L253 510" stroke-width="6" stroke="url(&quot;#SvgjsLinearGradient2404&quot;)" stroke-linecap="round" class="Down"></path><path d="M330 255L329 767" stroke-width="8" stroke="url(&quot;#SvgjsLinearGradient2404&quot;)" stroke-linecap="round" class="Down"></path><path d="M390 871L389 1546" stroke-width="6" stroke="url(&quot;#SvgjsLinearGradient2404&quot;)" stroke-linecap="round" class="Down"></path><path d="M1347 480L1346 1086" stroke-width="10" stroke="url(&quot;#SvgjsLinearGradient2403&quot;)" stroke-linecap="round" class="Up"></path><path d="M1582 92L1581 555" stroke-width="8" stroke="url(&quot;#SvgjsLinearGradient2403&quot;)" stroke-linecap="round" class="Up"></path><path d="M974 99L973 -250" stroke-width="8" stroke="url(&quot;#SvgjsLinearGradient2403&quot;)" stroke-linecap="round" class="Up"></path><path d="M1889 651L1888 1347" stroke-width="8" stroke="url(&quot;#SvgjsLinearGradient2403&quot;)" stroke-linecap="round" class="Up"></path></g><defs><mask id="SvgjsMask2401"><rect width="1920" height="1000" fill="#ffffff"></rect></mask><radialGradient cx="50%" cy="50%" r="1082.4" gradientUnits="userSpaceOnUse" id="SvgjsRadialGradient2402"><stop stop-color="rgba(14, 42, 71, 1)" offset="0"></stop><stop stop-color="rgba(14, 16, 15, 1)" offset="0"></stop></radialGradient><linearGradient x1="0%" y1="100%" x2="0%" y2="0%" id="SvgjsLinearGradient2403"><stop stop-color="rgba(198, 44, 61, 0)" offset="0"></stop><stop stop-color="rgba(198, 44, 61, 1)" offset="1"></stop></linearGradient><linearGradient x1="0%" y1="0%" x2="0%" y2="100%" id="SvgjsLinearGradient2404"><stop stop-color="rgba(198, 44, 61, 0)" offset="0"></stop><stop stop-color="rgba(198, 44, 61, 1)" offset="1"></stop></linearGradient></defs></svg>