<svg id="visual" viewBox="0 0 2000 300" width="2000" height="300" xmlns="http://www.w3.org/2000/svg" xmlns:xlink="http://www.w3.org/1999/xlink" version="1.1"><path d="M0 230L47.7 218C95.3 206 190.7 182 285.8 177.5C381 173 476 188 571.2 201.7C666.3 215.3 761.7 227.7 857 218.8C952.3 210 1047.7 180 1143 168C1238.3 156 1333.7 162 1428.8 170.5C1524 179 1619 190 1714.2 187.7C1809.3 185.3 1904.7 169.7 1952.3 161.8L2000 154L2000 301L1952.3 301C1904.7 301 1809.3 301 1714.2 301C1619 301 1524 301 1428.8 301C1333.7 301 1238.3 301 1143 301C1047.7 301 952.3 301 857 301C761.7 301 666.3 301 571.2 301C476 301 381 301 285.8 301C190.7 301 95.3 301 47.7 301L0 301Z" fill="#F90716" stroke-linecap="round" stroke-linejoin="miter"></path></svg>