<svg id="visual" viewBox="0 0 2000 200" width="2000" height="200" xmlns="http://www.w3.org/2000/svg" xmlns:xlink="http://www.w3.org/1999/xlink" version="1.1"><path d="M0 58L47.7 68.2C95.3 78.3 190.7 98.7 285.8 102.5C381 106.3 476 93.7 571.2 82.2C666.3 70.7 761.7 60.3 857 68C952.3 75.7 1047.7 101.3 1143 111.7C1238.3 122 1333.7 117 1428.8 109.7C1524 102.3 1619 92.7 1714.2 94.5C1809.3 96.3 1904.7 109.7 1952.3 116.3L2000 123L2000 0L1952.3 0C1904.7 0 1809.3 0 1714.2 0C1619 0 1524 0 1428.8 0C1333.7 0 1238.3 0 1143 0C1047.7 0 952.3 0 857 0C761.7 0 666.3 0 571.2 0C476 0 381 0 285.8 0C190.7 0 95.3 0 47.7 0L0 0Z" fill="#F90716" stroke-linecap="round" stroke-linejoin="miter"></path></svg>