<svg id="visual" viewBox="0 0 2000 300" width="2000" height="300" xmlns="http://www.w3.org/2000/svg" xmlns:xlink="http://www.w3.org/1999/xlink" version="1.1"><path d="M0 209L47.7 209C95.3 209 190.7 209 285.8 204.2C381 199.3 476 189.7 571.2 176.8C666.3 164 761.7 148 857 148.3C952.3 148.7 1047.7 165.3 1143 178.5C1238.3 191.7 1333.7 201.3 1428.8 192C1524 182.7 1619 154.3 1714.2 155.5C1809.3 156.7 1904.7 187.3 1952.3 202.7L2000 218L2000 301L1952.3 301C1904.7 301 1809.3 301 1714.2 301C1619 301 1524 301 1428.8 301C1333.7 301 1238.3 301 1143 301C1047.7 301 952.3 301 857 301C761.7 301 666.3 301 571.2 301C476 301 381 301 285.8 301C190.7 301 95.3 301 47.7 301L0 301Z" fill="#070013" stroke-linecap="round" stroke-linejoin="miter"></path></svg>