<svg id="visual" viewBox="0 0 2000 300" width="2000" height="300" xmlns="http://www.w3.org/2000/svg" xmlns:xlink="http://www.w3.org/1999/xlink" version="1.1"><path d="M0 248L55.5 239.3C111 230.7 222 213.3 333.2 201.3C444.3 189.3 555.7 182.7 666.8 191.5C778 200.3 889 224.7 1000 218.2C1111 211.7 1222 174.3 1333.2 152.5C1444.3 130.7 1555.7 124.3 1666.8 130.7C1778 137 1889 156 1944.5 165.5L2000 175L2000 301L1944.5 301C1889 301 1778 301 1666.8 301C1555.7 301 1444.3 301 1333.2 301C1222 301 1111 301 1000 301C889 301 778 301 666.8 301C555.7 301 444.3 301 333.2 301C222 301 111 301 55.5 301L0 301Z" fill="#9400FF" stroke-linecap="round" stroke-linejoin="miter"></path></svg>