<svg id="visual" viewBox="0 0 2000 1000" width="2000" height="1000" xmlns="http://www.w3.org/2000/svg" xmlns:xlink="http://www.w3.org/1999/xlink" version="1.1"><path d="M0 920L55.5 918C111 916 222 912 333.2 921C444.3 930 555.7 952 666.8 963.5C778 975 889 976 1000 964.8C1111 953.7 1222 930.3 1333.2 925C1444.3 919.7 1555.7 932.3 1666.8 938.2C1778 944 1889 943 1944.5 942.5L2000 942L2000 1001L1944.5 1001C1889 1001 1778 1001 1666.8 1001C1555.7 1001 1444.3 1001 1333.2 1001C1222 1001 1111 1001 1000 1001C889 1001 778 1001 666.8 1001C555.7 1001 444.3 1001 333.2 1001C222 1001 111 1001 55.5 1001L0 1001Z" fill="#FEF2F4" stroke-linecap="round" stroke-linejoin="miter"></path></svg>