<svg id="visual" viewBox="0 0 2000 1000" width="2000" height="1000" xmlns="http://www.w3.org/2000/svg" xmlns:xlink="http://www.w3.org/1999/xlink" version="1.1"><path d="M0 30L55.5 33.5C111 37 222 44 333.2 40.2C444.3 36.3 555.7 21.7 666.8 17.3C778 13 889 19 1000 33C1111 47 1222 69 1333.2 78.7C1444.3 88.3 1555.7 85.7 1666.8 76.5C1778 67.3 1889 51.7 1944.5 43.8L2000 36L2000 0L1944.5 0C1889 0 1778 0 1666.8 0C1555.7 0 1444.3 0 1333.2 0C1222 0 1111 0 1000 0C889 0 778 0 666.8 0C555.7 0 444.3 0 333.2 0C222 0 111 0 55.5 0L0 0Z" fill="#FEF2F4" stroke-linecap="round" stroke-linejoin="miter"></path></svg>